<svg xmlns="http://www.w3.org/2000/svg" viewBox="0 0 178.36 257.88"><defs><style>.cls-1{fill:#0065fc;}</style></defs><title>favicon2</title><g id="Calque_2" data-name="Calque 2"><g id="Calque_1-2" data-name="Calque 1"><path class="cls-1" d="M23.23,144.58c15.11,3,16.31-5,16.54-16.31.52-25.7,2.5-51.37,3.76-77.06.18-3.72-.28-7.48-.55-13.6C25.21,46,18.79,61,12.79,76.3-2.4,63.25-4.43,46.81,8.7,32c7.4-8.34,17.8-14.2,27.39-20.34A118.81,118.81,0,0,1,58.59.56c3.47-1.3,8,0,12,.42,8.17.86,16.33,1.93,24.5,2.89C123.88,7.22,145.43,21,155.07,49c10,28.94,5,57.86-17.2,77.7-18.29,16.37-18.39,29.81-8.41,48.56,8.82,16.55,15.39,34.38,25.12,50.33,5.74,9.4,15.7,16.23,23.78,24.23-11.58,11.54-32.87,11.11-43.53-3.49-8-11-13.75-23.86-19.1-36.48-6-14.11-10.6-28.82-15.39-43.41-2.46-7.53-5.84-10.12-14.36-7.9C64.41,164.08,64,163.6,65.37,186.17c.9,15.3,2.42,30.57,4,45.82,1,9.66-3.61,14.29-17.06,17.12-9.21,1.94-13.12-2.36-13.3-10.85-.44-21.45-.91-42.9-.73-64.35.06-6.14,1.16-10.44-6.93-13-4.23-1.36-6.5-8.83-9.65-13.54Zm42.36-2.49c10.41-2.44,19.13-3.58,27.19-6.53,26.39-9.66,40.29-35.37,36.47-66.12-2.94-23.73-20.94-39.74-48.39-43.33-9.14-1.2-13.62,1.64-13.67,11.63-.12,20-1.17,39.91-1.55,59.88C65.38,111.38,65.59,125.14,65.59,142.09Z"/></g></g></svg>