<svg xmlns="http://www.w3.org/2000/svg" viewBox="0 0 179.57 258.88"><defs><style>.cls-1{fill:#0065fc;stroke:#fff;stroke-miterlimit:10;}</style></defs><title>Fichier 4</title><g id="Calque_2" data-name="Calque 2"><g id="Calque_1-2" data-name="Calque 1"><path class="cls-1" d="M23.73,145.08c15.11,3,16.31-5,16.54-16.31.52-25.7,2.5-51.37,3.76-77.06.18-3.72-.28-7.48-.55-13.6C25.71,46.52,19.29,61.48,13.29,76.8-1.9,63.75-3.93,47.31,9.2,32.5,16.6,24.16,27,18.3,36.59,12.16a118.81,118.81,0,0,1,22.5-11.1c3.47-1.3,8,0,12,.42,8.17.86,16.33,1.93,24.5,2.89,28.78,3.35,50.33,17.17,60,45.08,10,28.94,5,57.86-17.2,77.7C120.08,143.52,120,157,130,175.71c8.82,16.55,15.39,34.38,25.12,50.33,5.74,9.4,15.7,16.23,23.78,24.23-11.58,11.54-32.87,11.11-43.53-3.49-8-11-13.75-23.86-19.1-36.48-6-14.11-10.6-28.82-15.39-43.41-2.46-7.53-5.84-10.12-14.36-7.9-21.57,5.59-21.94,5.11-20.61,27.68.9,15.3,2.42,30.57,4,45.82,1,9.66-3.61,14.29-17.06,17.12-9.21,1.94-13.12-2.36-13.3-10.85-.44-21.45-.91-42.9-.73-64.35.06-6.14,1.16-10.44-6.93-13-4.23-1.36-6.5-8.83-9.65-13.54Zm42.36-2.49c10.41-2.44,19.13-3.58,27.19-6.53,26.39-9.66,40.29-35.37,36.47-66.12-2.94-23.73-20.94-39.74-48.39-43.33-9.14-1.2-13.62,1.64-13.67,11.63-.12,20-1.17,39.91-1.55,59.88C65.88,111.88,66.09,125.64,66.09,142.59Z"/></g></g></svg>