<svg xmlns="http://www.w3.org/2000/svg" viewBox="0 0 278.79 318.22"><defs><style>.cls-1{fill:#0065fc;}.cls-2{fill:#fff;stroke:#fff;stroke-miterlimit:10;}</style></defs><title>favicon_1</title><g id="Calque_2" data-name="Calque 2"><g id="Calque_1-2" data-name="Calque 1"><ellipse class="cls-1" cx="139.39" cy="159.11" rx="139.39" ry="159.11"/><path class="cls-2" d="M71.51,167.21c15.11,3,16.31-5,16.54-16.31.52-25.7,2.49-51.37,3.76-77.06.18-3.72-.28-7.48-.55-13.6-17.77,8.41-24.2,23.37-30.19,38.69C45.87,85.88,43.85,69.44,57,54.63c7.4-8.34,17.8-14.21,27.39-20.34a119,119,0,0,1,22.49-11.1c3.48-1.3,8,0,12,.42,8.17.85,16.33,1.93,24.49,2.88,28.79,3.36,50.34,17.18,60,45.09,10,28.94,5,57.86-17.2,77.7-18.3,16.37-18.4,29.81-8.41,48.56,8.81,16.55,15.39,34.38,25.12,50.32,5.74,9.41,15.7,16.23,23.78,24.23-11.58,11.55-32.87,11.12-43.53-3.48-8-11-13.75-23.86-19.1-36.48-6-14.11-10.6-28.82-15.39-43.41-2.47-7.53-5.84-10.12-14.37-7.9-21.56,5.59-21.93,5.11-20.6,27.67.9,15.31,2.42,30.58,3.95,45.83,1,9.66-3.6,14.29-17,17.12-9.21,1.94-13.12-2.36-13.3-10.85-.44-21.45-.91-42.9-.73-64.35,0-6.14,1.16-10.44-6.93-13-4.23-1.36-6.5-8.83-9.66-13.54Zm42.36-2.49c10.41-2.44,19.13-3.58,27.19-6.53,26.39-9.67,40.28-35.37,36.47-66.12-2.94-23.73-20.95-39.74-48.39-43.33-9.14-1.2-13.62,1.64-13.68,11.62-.11,20-1.16,39.92-1.54,59.89C113.65,134,113.87,147.77,113.87,164.72Z"/></g></g></svg>